<?xml version="1.0" standalone="no"?>
<!DOCTYPE svg PUBLIC "-//W3C//DTD SVG 20010904//EN"
 "http://www.w3.org/TR/2001/REC-SVG-20010904/DTD/svg10.dtd">
<svg version="1.0" xmlns="http://www.w3.org/2000/svg"
 width="395.000000pt" height="395.000000pt" viewBox="0 0 395.000000 395.000000"
 preserveAspectRatio="xMidYMid meet">
<metadata>
Created by potrace 1.14, written by Peter Selinger 2001-2017
</metadata>
<g transform="translate(0.000000,395.000000) scale(0.100000,-0.100000)"
fill="#000000" stroke="none">
<path d="M1861 3923 c-1 -6 -10 -9 -21 -6 -11 3 -20 0 -20 -6 0 -9 -5 -9 -21
0 -15 8 -19 8 -15 0 9 -14 -36 -10 -46 4 -5 6 -8 5 -8 -3 0 -7 -4 -10 -10 -7
-5 3 -10 2 -10 -3 0 -5 -12 -8 -27 -6 -15 1 -32 0 -37 -4 -6 -3 -26 -7 -45 -9
-20 -2 -38 -7 -41 -11 -3 -4 -21 -8 -40 -10 -19 -1 -39 -7 -44 -12 -13 -13
-29 -13 -22 -1 4 5 -5 4 -19 -2 -14 -7 -25 -15 -25 -19 0 -10 64 3 68 14 2 4
8 5 13 2 6 -3 16 -1 24 6 9 8 15 8 20 0 5 -8 11 -8 20 0 8 7 34 12 59 13 24 1
42 5 40 9 -3 4 4 7 13 7 37 -1 166 12 174 17 5 3 9 0 9 -6 0 -7 8 -9 23 -4 12
4 29 7 37 7 8 0 18 5 22 11 5 7 8 6 8 -4 0 -13 1 -13 10 0 7 11 10 11 10 2 0
-7 5 -10 10 -7 6 3 10 1 10 -5 0 -8 6 -8 20 0 14 8 20 8 20 0 0 -6 5 -8 11 -5
22 14 59 12 59 -2 0 -9 -6 -13 -14 -10 -8 3 -17 1 -20 -6 -3 -8 -5 -8 -5 2 -1
11 -4 11 -16 1 -8 -7 -15 -8 -15 -3 0 5 -7 10 -15 10 -8 0 -15 -3 -15 -7 0 -3
-9 -6 -20 -6 -11 0 -20 4 -20 9 0 5 -7 3 -17 -4 -20 -17 -17 -17 -36 -1 -9 8
-18 9 -21 4 -3 -6 -24 -9 -46 -8 -22 0 -40 -2 -40 -5 0 -3 -11 -4 -25 -1 -14
2 -32 -1 -40 -8 -10 -8 -15 -9 -15 -1 0 7 -8 8 -22 2 -13 -4 -35 -8 -50 -7
-16 1 -28 -3 -28 -8 0 -5 -3 -6 -7 -3 -3 4 -12 2 -20 -4 -9 -9 -13 -8 -13 0 0
7 -6 8 -17 2 -40 -19 -83 -30 -76 -18 5 8 2 8 -9 0 -8 -7 -27 -14 -42 -15 -14
-1 -26 -5 -26 -9 0 -4 -18 -10 -40 -14 -22 -4 -40 -11 -40 -16 0 -6 -4 -8 -9
-4 -5 3 -13 0 -16 -6 -4 -5 -13 -8 -21 -5 -8 3 -14 1 -14 -5 0 -6 -5 -7 -12
-3 -6 4 -17 -1 -25 -12 -8 -10 -16 -18 -18 -16 -9 5 -60 -11 -66 -20 -5 -8
-25 -15 -52 -17 -5 -1 -5 -5 -2 -11 3 -5 -3 -10 -13 -10 -11 0 -25 -7 -32 -15
-7 -8 -20 -15 -30 -15 -9 0 -25 -9 -35 -20 -10 -11 -22 -17 -26 -14 -5 3 -9 0
-9 -5 0 -6 -6 -10 -12 -8 -7 1 -12 -4 -10 -11 1 -8 -2 -11 -8 -7 -5 3 -10 1
-10 -5 0 -6 -4 -8 -10 -5 -5 3 -10 2 -10 -3 0 -11 -84 -72 -99 -72 -6 0 -11 5
-11 11 0 5 5 7 12 3 7 -4 8 -3 4 4 -7 11 5 16 31 13 6 -1 14 3 17 8 13 21 -47
2 -73 -23 -15 -14 -31 -23 -36 -19 -4 5 -5 3 -2 -3 5 -10 -25 -44 -39 -44 -12
0 -164 -155 -170 -173 -3 -9 -9 -15 -14 -12 -4 3 -15 -10 -23 -28 -9 -17 -25
-38 -37 -45 -11 -7 -18 -17 -15 -22 3 -6 2 -10 -4 -10 -5 0 -13 -9 -16 -20 -4
-11 -10 -18 -14 -15 -7 4 -35 -45 -31 -54 1 -2 -2 -7 -7 -10 -12 -8 -73 -106
-73 -116 0 -5 -8 -17 -18 -28 -12 -15 -13 -19 -2 -13 8 4 6 0 -4 -8 -11 -9
-16 -16 -10 -16 5 0 5 -3 -1 -8 -5 -4 -16 -18 -23 -31 -11 -19 -11 -22 0 -16
7 3 4 -1 -6 -9 -11 -9 -17 -16 -13 -16 4 0 2 -10 -5 -22 -7 -13 -11 -29 -10
-35 2 -7 -2 -13 -8 -13 -5 0 -10 -9 -10 -19 0 -11 -5 -23 -10 -26 -6 -4 -8
-11 -5 -16 4 -5 2 -9 -4 -9 -5 0 -8 -11 -5 -24 2 -14 -1 -29 -8 -33 -12 -8
-16 -19 -21 -70 -1 -13 -6 -23 -10 -23 -5 0 -6 -4 -2 -9 3 -5 0 -13 -6 -17 -8
-4 -7 -9 2 -15 12 -7 12 -9 0 -9 -7 0 -11 -6 -7 -15 3 -8 1 -15 -5 -15 -6 0
-8 -4 -4 -9 3 -5 0 -13 -6 -17 -8 -4 -7 -9 2 -15 12 -8 12 -10 0 -18 -7 -5
-10 -14 -7 -20 4 -6 1 -11 -6 -11 -9 0 -9 -3 2 -10 8 -5 10 -10 4 -10 -7 0
-14 -11 -16 -25 -3 -14 -2 -25 3 -25 8 0 7 -20 -3 -35 -3 -6 -5 -36 -5 -68 1
-31 -2 -57 -6 -57 -4 0 -3 -9 3 -20 8 -14 8 -20 0 -20 -6 0 -9 -4 -6 -8 3 -5
6 -59 7 -120 1 -64 6 -112 12 -112 5 0 5 -6 -2 -13 -8 -10 -7 -17 1 -25 7 -7
8 -12 4 -12 -5 0 -3 -7 4 -15 10 -12 10 -15 -1 -15 -11 0 -11 -2 1 -10 12 -8
12 -10 1 -10 -11 0 -10 -5 3 -24 12 -18 12 -26 3 -29 -9 -4 -9 -6 1 -6 7 -1
12 -15 12 -37 0 -20 4 -33 10 -29 6 3 7 -1 4 -10 -4 -8 -1 -22 5 -29 9 -11 9
-15 -1 -19 -11 -4 -10 -6 0 -6 7 -1 10 -6 7 -11 -3 -6 -1 -10 5 -10 6 0 9 -4
6 -9 -4 -5 0 -12 6 -14 9 -4 10 -6 1 -6 -9 -1 -8 -8 3 -28 7 -16 14 -36 14
-45 0 -10 5 -18 11 -18 5 0 8 -4 5 -8 -3 -5 2 -21 10 -36 7 -16 14 -37 14 -47
0 -11 5 -19 10 -19 6 0 10 -9 10 -20 0 -11 4 -20 9 -20 5 0 12 -7 15 -16 3 -8
2 -12 -4 -9 -6 3 -7 -1 -4 -9 3 -9 10 -16 15 -16 5 0 9 -7 9 -15 0 -8 5 -15
11 -15 5 0 8 -4 4 -9 -3 -5 1 -16 9 -24 8 -8 12 -17 9 -21 -4 -3 0 -6 7 -6 7
0 11 -3 7 -6 -3 -4 1 -13 9 -21 8 -8 12 -19 9 -24 -4 -5 -1 -9 5 -9 6 0 9 -4
6 -9 -3 -5 1 -12 10 -15 8 -3 13 -10 10 -15 -3 -5 1 -14 9 -21 8 -7 15 -19 15
-26 0 -8 4 -14 8 -14 5 0 15 -12 23 -27 8 -16 16 -30 19 -33 3 -3 18 -24 33
-47 16 -23 48 -62 72 -87 23 -25 41 -47 39 -49 -2 -1 26 -31 61 -66 36 -34 65
-68 65 -74 0 -5 3 -8 6 -4 4 3 15 -4 26 -16 11 -12 17 -16 13 -10 -3 7 20 -12
52 -43 32 -30 68 -57 80 -61 13 -3 23 -12 23 -20 0 -8 6 -13 12 -11 7 3 19 -3
28 -13 8 -10 22 -19 30 -21 8 -2 22 -10 32 -18 9 -9 40 -27 67 -40 28 -14 51
-29 51 -33 0 -5 4 -5 10 -2 5 3 10 1 10 -5 0 -6 4 -8 10 -5 5 3 10 1 10 -5 0
-6 4 -9 9 -5 5 3 15 0 23 -7 7 -7 20 -14 28 -16 8 -2 18 -9 22 -15 4 -7 8 -8
8 -2 0 5 5 4 11 -2 6 -6 18 -9 25 -6 8 3 14 1 14 -4 0 -5 23 -16 50 -23 28 -7
50 -16 50 -20 0 -5 18 -9 58 -12 6 -1 12 -6 12 -11 0 -6 3 -7 6 -4 4 3 15 2
25 -4 14 -7 19 -6 19 3 0 10 2 10 9 0 4 -8 12 -14 17 -13 16 0 59 -10 75 -19
10 -5 21 -4 28 3 7 7 11 7 11 1 0 -12 3 -13 82 -16 32 -2 58 -5 58 -8 0 -3 12
-6 28 -5 15 0 42 -2 60 -6 19 -4 32 -3 32 3 0 6 8 4 17 -3 11 -10 14 -10 9 -1
-4 6 -2 12 3 12 6 0 11 -6 11 -12 0 -8 3 -9 8 -3 10 14 52 14 52 1 0 -6 5 -4
10 4 5 8 10 11 10 5 0 -5 14 -10 30 -10 17 0 30 5 30 10 0 6 5 3 10 -5 5 -8
10 -10 10 -5 0 9 43 15 123 16 9 0 17 5 17 10 0 6 7 6 19 0 15 -8 20 -7 26 6
5 14 8 15 14 4 11 -18 15 -18 34 -2 9 7 24 11 32 7 8 -3 15 0 15 6 0 6 3 8 6
5 9 -9 44 11 44 25 0 9 -3 9 -11 1 -6 -6 -18 -9 -25 -6 -8 3 -14 0 -14 -7 0
-6 -4 -8 -10 -5 -5 3 -18 1 -28 -4 -13 -7 -22 -7 -29 0 -8 8 -13 7 -17 0 -4
-6 -27 -11 -52 -11 -24 0 -44 -5 -44 -10 0 -7 -6 -7 -19 0 -14 7 -22 7 -26 0
-4 -7 -12 -7 -18 -2 -15 10 -59 14 -53 4 6 -10 -36 -8 -52 2 -7 4 -12 3 -12
-1 0 -10 -41 -10 -57 0 -7 4 -14 3 -18 -3 -4 -7 -12 -7 -26 0 -10 6 -19 7 -19
3 0 -10 -47 -10 -56 0 -3 3 -13 3 -22 0 -12 -4 -11 -1 3 10 23 18 39 22 30 7
-8 -13 11 -13 36 0 13 8 19 7 19 0 0 -6 5 -8 13 -3 18 11 57 11 50 0 -6 -10
14 -7 50 8 12 5 17 2 17 -11 0 -15 2 -16 9 -5 5 8 26 14 50 14 23 0 41 5 41
11 0 6 5 4 10 -4 6 -9 10 -10 10 -3 0 8 9 9 30 3 19 -5 30 -5 30 1 0 6 4 8 9
4 5 -3 12 -1 15 3 3 5 17 8 31 6 14 -1 39 1 56 6 21 6 28 6 23 -3 -3 -7 0 -5
8 3 17 19 38 23 38 7 0 -9 2 -9 8 0 5 7 20 14 35 15 15 1 27 5 27 9 0 4 8 6
17 5 9 -2 38 5 64 15 25 10 49 15 53 12 3 -4 6 -1 6 5 0 7 12 12 26 12 16 0
23 4 18 12 -4 7 -3 8 5 4 6 -4 18 -2 26 4 8 7 15 9 15 5 0 -4 6 -2 13 4 8 6
17 8 20 4 4 -3 7 0 7 7 0 7 3 10 7 7 3 -4 12 -2 20 4 7 6 13 8 13 3 0 -4 7 1
16 12 8 10 13 14 10 7 -5 -8 0 -8 19 0 14 7 25 15 25 20 0 4 6 7 14 7 7 0 26
10 42 22 16 13 25 16 20 8 -4 -8 -1 -7 7 2 8 10 17 15 20 11 4 -3 7 -1 7 5 0
7 7 12 15 12 9 0 18 7 21 15 4 8 10 15 15 15 4 0 6 -6 3 -14 -8 -20 12 -28 26
-11 7 8 16 12 21 9 5 -3 6 2 3 10 -3 9 -10 16 -16 16 -5 0 -7 -4 -4 -9 3 -5
-2 -15 -11 -22 -14 -12 -15 -11 -8 11 9 31 8 30 36 35 12 3 34 17 47 32 13 16
21 22 17 16 -3 -7 -2 -13 4 -13 6 0 8 -8 5 -17 -5 -14 -4 -15 4 -4 6 8 8 20 5
27 -2 6 1 15 6 19 6 3 9 11 6 16 -3 5 2 6 11 2 13 -5 15 -3 9 7 -5 8 -4 11 1
7 6 -3 29 14 51 38 23 23 44 40 47 37 3 -3 6 0 6 6 0 7 7 12 15 12 8 0 15 -4
15 -10 0 -5 -7 -10 -16 -10 -8 0 -12 -4 -9 -10 3 -5 0 -7 -8 -5 -7 3 -19 -5
-27 -19 -7 -14 -17 -23 -22 -20 -4 3 -8 1 -8 -5 0 -5 -13 -18 -29 -27 -17 -10
-27 -22 -24 -27 4 -6 1 -7 -7 -2 -9 5 -11 4 -6 -4 5 -8 13 -6 29 6 47 38 83
69 114 99 18 17 35 29 38 25 4 -3 5 -1 3 4 -1 6 20 32 47 59 28 27 49 52 47
57 -1 5 3 9 9 9 5 0 7 5 3 12 -4 6 -3 8 3 5 10 -6 73 63 73 80 0 5 9 15 19 23
11 7 18 17 15 22 -3 4 -1 8 5 8 6 0 18 15 27 33 10 17 24 38 33 45 13 11 13
12 1 7 -8 -4 -6 1 4 9 13 10 15 16 6 16 -8 0 -3 8 10 20 13 12 25 28 26 37 2
9 7 19 12 22 5 3 15 23 23 44 7 20 17 37 21 37 4 0 7 3 7 8 -4 21 2 32 13 26
8 -5 9 -2 5 9 -3 10 -2 17 3 17 5 0 7 6 4 14 -3 7 1 20 9 27 7 8 12 20 9 27
-2 6 0 12 6 12 8 0 10 6 14 49 1 11 6 17 10 15 4 -3 8 2 8 10 0 28 1 31 16 53
10 15 11 23 3 23 -7 0 -8 4 -2 13 5 6 15 37 22 67 8 30 18 61 24 68 5 6 5 12
0 12 -5 0 -9 9 -9 19 0 11 4 17 8 15 4 -3 9 10 9 28 1 18 3 44 6 58 2 14 5 62
6 107 1 46 4 83 7 83 3 0 3 27 0 60 -3 33 -3 60 0 60 3 0 3 27 2 60 -2 33 -7
60 -12 60 -10 0 -8 20 4 39 5 8 4 16 -2 20 -6 4 -13 30 -14 58 -2 28 -6 49
-10 47 -4 -3 -6 9 -4 25 2 17 0 31 -4 31 -6 0 -8 7 -12 48 0 9 -6 20 -12 24
-7 5 -6 8 3 8 11 0 11 4 -1 23 -15 22 -33 76 -30 89 1 5 -2 8 -8 8 -5 0 -10 5
-10 11 0 5 5 7 12 3 7 -4 1 8 -12 26 -13 18 -17 30 -9 25 9 -5 8 -1 -3 12 -10
11 -18 27 -18 36 0 9 -5 19 -10 22 -6 4 -8 10 -5 15 3 4 -2 13 -10 20 -8 7
-15 18 -15 26 0 20 -32 84 -42 84 -5 0 -6 5 -3 10 3 6 1 10 -5 10 -6 0 -8 5
-5 10 3 6 1 10 -5 10 -6 0 -8 5 -5 10 3 6 1 10 -4 10 -6 0 -11 7 -11 15 0 8
-5 15 -11 15 -5 0 -8 4 -4 9 3 5 -2 16 -10 25 -9 8 -16 18 -15 21 1 21 -1 25
-10 20 -5 -3 -10 3 -10 14 0 12 -4 21 -10 21 -5 0 -10 6 -10 13 0 7 -9 20 -20
30 -11 9 -20 22 -20 29 0 7 -12 24 -25 37 -14 12 -23 27 -20 31 3 5 -4 12 -16
15 -11 4 -18 9 -15 12 3 4 -7 19 -23 34 -16 15 -27 30 -23 33 3 3 0 6 -6 6 -7
0 -12 7 -12 17 0 9 -2 14 -5 11 -3 -2 -45 35 -95 84 -49 48 -94 88 -100 88 -6
0 -8 5 -5 10 3 6 0 10 -7 10 -8 0 -31 15 -51 34 -20 18 -39 31 -42 28 -3 -3
-5 0 -5 7 0 7 -5 9 -10 6 -6 -3 -13 1 -16 9 -3 9 -12 16 -20 16 -8 0 -14 4
-14 8 0 5 -16 14 -35 22 -19 7 -37 20 -40 27 -2 8 -9 12 -14 8 -6 -3 -14 3
-20 12 -6 10 -11 14 -11 9 0 -5 -10 -1 -22 10 -14 13 -19 14 -14 4 4 -8 1 -7
-7 3 -9 10 -21 20 -29 22 -39 9 -58 18 -58 28 0 6 -3 8 -6 4 -4 -3 -19 0 -35
9 -16 8 -29 12 -29 9 0 -4 -7 1 -16 9 -8 9 -20 14 -25 11 -5 -4 -9 -1 -9 6 0
8 -4 8 -16 -1 -12 -11 -15 -11 -12 1 2 8 -4 13 -14 13 -10 -1 -18 2 -18 7 0 5
-7 5 -17 2 -10 -4 -14 -2 -10 4 4 6 -4 11 -18 12 -48 3 -55 4 -55 13 0 4 -13
8 -29 8 -17 0 -33 5 -36 10 -4 6 -11 8 -16 4 -5 -3 -16 0 -24 6 -12 10 -15 10
-15 0 0 -10 -3 -10 -15 0 -8 7 -15 9 -15 4 0 -5 -5 -2 -10 6 -9 13 -10 13 -10
0 0 -11 -2 -12 -8 -3 -4 7 -29 13 -55 14 -26 1 -47 7 -47 12 0 5 -7 4 -15 -3
-8 -7 -15 -8 -15 -3 0 6 -18 9 -40 8 -22 -1 -38 1 -35 5 2 4 -6 6 -18 4 -68
-9 -107 -11 -103 -5 3 4 -22 4 -55 1 -36 -4 -60 -2 -63 5 -3 6 -5 5 -5 -2z
m280 -37 c5 3 9 -1 9 -8 0 -9 3 -9 10 2 9 13 10 13 10 0 0 -13 1 -13 10 0 6 9
10 11 10 3 0 -7 7 -10 15 -7 9 4 15 0 15 -7 0 -12 2 -12 9 0 6 10 10 10 16 1
4 -7 10 -8 14 -3 3 6 13 3 23 -6 15 -15 14 -16 -13 -16 -16 0 -29 3 -29 6 0 4
-19 6 -43 6 -24 0 -48 2 -53 5 -5 3 -17 4 -26 3 -11 -2 -18 3 -18 11 0 9 5 12
10 9 6 -3 10 0 11 7 0 10 2 10 6 0 2 -6 9 -10 14 -6z m199 -41 c0 -12 -29 -3
-34 10 -4 13 -2 14 14 5 11 -6 20 -13 20 -15z m-1480 -375 c-8 -5 -11 -10 -6
-10 5 0 -3 -9 -17 -20 -14 -11 -30 -20 -37 -20 -6 0 -9 -4 -6 -9 4 -5 -7 -15
-23 -22 -16 -7 -28 -16 -25 -20 2 -4 -5 -10 -16 -14 -11 -4 -17 -11 -14 -17 5
-7 1 -9 -9 -5 -10 4 -17 2 -17 -5 0 -6 -16 -28 -35 -49 -19 -22 -35 -36 -35
-33 0 4 -9 -5 -21 -20 -20 -26 -39 -34 -39 -17 0 11 130 141 142 141 5 0 6 5
2 12 -4 6 -3 8 3 5 6 -4 18 2 28 13 10 11 24 20 32 20 8 0 12 4 8 9 -3 5 4 12
15 16 11 3 20 11 20 17 0 6 3 8 7 5 3 -4 12 2 20 13 8 11 20 20 26 20 7 0 6
-4 -3 -10z m-90 -16 c0 -9 -6 -14 -13 -11 -12 5 -40 -17 -31 -26 2 -2 -2 -10
-11 -17 -32 -26 -27 1 5 35 37 38 50 43 50 19z m-205 -275 c-3 -4 -12 -6 -21
-2 -8 3 -14 2 -13 -3 1 -5 1 -14 0 -20 -2 -16 -56 -74 -69 -74 -7 0 -12 -5
-12 -11 0 -5 5 -7 12 -3 6 4 3 -4 -8 -18 -10 -14 -23 -23 -28 -20 -5 3 -7 -2
-3 -11 4 -12 1 -17 -9 -17 -10 0 -14 -6 -10 -15 3 -9 -1 -18 -9 -21 -8 -4 -13
-10 -10 -15 3 -4 -4 -13 -15 -19 -11 -6 -18 -15 -15 -21 4 -5 1 -9 -5 -9 -6 0
-9 -4 -5 -9 3 -5 -2 -17 -11 -25 -8 -9 -12 -16 -8 -16 3 0 1 -6 -5 -13 -6 -8
-7 -18 -3 -22 4 -5 1 -5 -5 -1 -12 6 -18 -5 -14 -26 0 -5 -3 -8 -9 -8 -6 0 -9
-3 -8 -7 3 -14 -31 -83 -41 -83 -5 0 -7 -9 -4 -20 3 -12 0 -20 -6 -20 -7 0
-10 -4 -6 -9 3 -5 1 -12 -4 -15 -8 -5 -25 -63 -22 -78 0 -5 -4 -8 -10 -8 -5 0
-8 -4 -4 -9 3 -5 1 -12 -5 -16 -5 -3 -10 -15 -10 -26 0 -11 -4 -17 -10 -14 -5
3 -10 1 -10 -4 0 -6 5 -11 11 -11 8 0 8 -4 2 -12 -6 -7 -11 -20 -11 -28 -2
-36 -9 -71 -17 -78 -4 -4 -5 -1 -1 6 5 7 1 12 -11 13 -11 0 -13 3 -5 6 6 2 9
10 6 15 -4 6 -2 8 3 5 6 -4 11 3 11 16 2 56 21 137 33 137 5 0 5 7 2 17 -4 10
-2 14 4 10 6 -4 11 4 11 20 0 15 4 29 10 31 6 2 8 10 5 18 -3 7 1 16 8 19 8 3
15 17 16 31 0 15 7 30 15 35 7 5 9 9 5 9 -5 0 -1 7 7 16 9 8 14 20 11 25 -4 5
-1 9 6 9 7 0 9 3 6 6 -4 4 3 20 14 35 11 16 17 33 14 39 -3 5 1 10 10 10 11 0
15 5 11 15 -3 8 -1 15 4 15 6 0 10 7 10 15 0 8 5 15 11 15 5 0 8 4 5 9 -4 5
-3 11 1 13 12 5 68 92 65 101 -1 5 2 6 8 2 5 -3 10 0 10 7 0 8 16 30 36 50 22
23 33 42 28 50 -4 7 -4 10 1 6 5 -5 14 1 22 12 13 18 49 18 38 -1z m-435 -863
c0 -7 -8 -20 -17 -27 -15 -11 -16 -11 -6 0 6 7 9 20 6 27 -3 8 0 14 6 14 6 0
11 -6 11 -14z m3725 -654 c-3 -3 -11 0 -18 7 -9 10 -8 11 6 5 10 -3 15 -9 12
-12z m-5 -16 c0 -3 -4 -8 -10 -11 -5 -3 -10 -1 -10 4 0 6 5 11 10 11 6 0 10
-2 10 -4z m-11 -43 c-9 -10 -8 -13 2 -13 10 0 10 -3 3 -8 -6 -4 -10 -15 -8
-24 1 -10 -2 -18 -8 -18 -6 0 -7 -7 -4 -16 3 -8 2 -12 -4 -9 -6 3 -10 -4 -11
-17 0 -13 -3 -32 -6 -43 -2 -11 -6 -30 -7 -43 -4 -33 -23 -49 -38 -33 -11 11
-10 13 4 8 10 -3 20 -1 24 5 4 6 3 8 -4 4 -6 -3 -13 -2 -17 4 -3 5 -1 10 5 10
6 0 8 5 5 10 -3 6 0 10 7 10 9 0 9 3 -2 10 -8 5 -10 10 -4 10 6 0 11 6 12 13
0 6 3 23 7 37 4 14 8 33 8 43 1 9 7 17 13 17 7 0 11 12 9 28 -1 19 3 29 11 29
10 0 11 -4 3 -14z m-74 -260 c-4 -10 -8 -22 -10 -28 -9 -35 -28 -75 -36 -75
-5 0 -9 -9 -9 -19 0 -25 -18 -37 -33 -22 -7 7 -6 12 6 17 9 3 19 19 22 36 6
23 9 27 17 17 7 -11 9 -9 7 6 -3 40 1 56 12 49 8 -4 9 0 4 15 -5 16 -2 21 10
21 12 0 15 -5 10 -17z m-75 -173 c0 -5 -4 -10 -10 -10 -5 0 -9 -3 -8 -7 1 -5
-3 -18 -10 -30 -7 -13 -10 -23 -6 -23 4 0 -3 -9 -15 -19 -12 -11 -21 -22 -19
-25 2 -3 -5 -15 -14 -26 -10 -11 -18 -25 -18 -30 0 -6 -5 -10 -11 -10 -6 0 -9
-9 -6 -20 3 -11 2 -18 -2 -16 -8 5 -44 -20 -39 -28 3 -6 -27 -50 -54 -78 -10
-10 -16 -18 -13 -18 2 0 -11 -16 -30 -35 -20 -19 -35 -37 -35 -40 0 -3 -3 -6
-7 -7 -5 -1 -19 -16 -33 -32 -36 -43 -120 -124 -120 -117 -1 3 -6 -4 -13 -16
-12 -21 -15 -23 -38 -23 -5 0 -8 -4 -5 -8 3 -5 -8 -16 -25 -26 -16 -9 -27 -21
-24 -27 4 -5 -2 -6 -11 -2 -13 5 -15 3 -9 -7 6 -9 4 -11 -5 -5 -10 6 -10 11 3
20 9 7 13 16 9 20 -4 5 -2 5 4 2 6 -4 25 8 43 26 42 43 71 68 71 62 0 -3 6 0
14 7 10 10 11 15 2 21 -7 6 -4 7 7 3 12 -4 21 1 27 17 5 12 9 19 9 15 1 -12
41 30 41 43 0 5 5 7 10 4 6 -3 10 -2 10 2 0 5 17 27 38 48 21 22 40 44 42 50
3 5 23 29 45 53 22 24 40 47 40 51 1 12 40 71 48 71 4 0 6 4 3 9 -3 5 1 12 10
15 8 3 13 10 10 15 -3 4 4 17 15 27 11 10 17 24 15 31 -3 7 2 13 11 13 9 0 13
3 10 6 -4 4 1 20 10 35 17 29 33 38 33 19z m-173 -345 c0 -8 -4 -12 -9 -9 -7
5 -12 -8 -10 -27 1 -3 -5 -6 -12 -6 -10 0 -9 7 3 29 18 31 28 36 28 13z m-100
-127 c-27 -15 -47 -39 -41 -49 3 -5 -3 -12 -13 -16 -10 -3 -22 -13 -26 -20 -5
-7 -13 -11 -18 -7 -6 3 -3 12 8 20 10 7 15 14 11 14 -9 0 52 60 62 60 4 0 11
8 15 18 6 13 8 14 12 3 3 -8 -2 -18 -10 -23z m-1702 -590 c5 4 5 1 1 -5 -10
-18 -23 -16 -30 3 -5 13 -4 14 7 6 8 -7 18 -8 22 -4z m28 -13 c-3 -9 -8 -14
-10 -11 -3 3 -2 9 2 15 9 16 15 13 8 -4z m75 2 c15 4 15 3 2 -6 -20 -14 -73
-15 -65 0 4 6 13 8 21 5 8 -3 14 0 15 7 0 9 2 9 5 0 3 -7 13 -9 22 -6z"/>
<path d="M1367 3813 c3 -6 11 -9 19 -6 20 7 17 19 -5 19 -11 0 -17 -6 -14 -13z"/>
<path d="M1322 3804 c-7 -8 -17 -12 -23 -9 -5 4 -9 1 -9 -5 0 -6 -4 -9 -8 -6
-4 2 -13 1 -20 -3 -8 -4 -5 -11 9 -20 12 -7 18 -8 15 -2 -7 10 52 47 67 43 5
-1 6 2 2 8 -8 14 -17 12 -33 -6z"/>
<path d="M1214 3762 c4 -3 14 -7 22 -8 9 -1 13 0 10 4 -4 3 -14 7 -22 8 -9 1
-13 0 -10 -4z"/>
<path d="M1116 3713 c-6 -14 -5 -15 5 -6 7 7 10 15 7 18 -3 3 -9 -2 -12 -12z"/>
<path d="M905 3590 c-4 -6 -11 -7 -17 -4 -7 4 -8 2 -4 -5 6 -9 12 -9 24 1 10
7 19 14 21 15 2 2 -1 3 -7 3 -6 0 -14 -5 -17 -10z"/>
<path d="M850 3549 c0 -5 -4 -8 -9 -4 -5 3 -12 2 -15 -3 -2 -4 6 -8 19 -8 15
0 21 5 18 13 -6 16 -13 17 -13 2z"/>
<path d="M3110 415 c-7 -8 -17 -12 -23 -8 -6 4 -7 1 -3 -6 6 -9 13 -8 27 5 10
9 19 19 19 21 0 7 -8 2 -20 -12z"/>
<path d="M2716 201 c-17 -6 -17 -8 -4 -14 10 -3 19 0 22 9 3 8 4 14 3 13 -1 0
-11 -4 -21 -8z"/>
<path d="M2660 175 c-7 -8 -18 -15 -24 -14 -28 3 -42 -3 -55 -23 -13 -22 -13
-23 6 -5 11 9 23 14 26 10 4 -3 7 -1 7 6 0 7 4 10 9 7 13 -8 38 3 45 20 7 18
2 18 -14 -1z"/>
<path d="M2477 122 c-15 -7 -25 -18 -21 -23 4 -6 13 -4 25 7 10 9 25 14 34 11
8 -4 15 -2 15 4 0 6 6 7 13 3 6 -4 9 -3 4 1 -12 13 -39 12 -70 -3z"/>
</g>
</svg>
